<svg width="78" height="40" viewBox="0 0 78 40" fill="none" xmlns="http://www.w3.org/2000/svg">
<path d="M78 0L77.9997 0.000305783V39.9994L78 40L77.9997 39.9997L78 40L77.9991 39.9997H0.000293348L0 40V0H78ZM76.3414 38.332V1.66508H39.823V3.37435H52.2505V4.93332L46.1924 15.1949C43.5802 19.6154 43.3131 22.4622 43.275 24.979H41.4875C41.4888 24.881 41.4904 24.7825 41.4924 24.6835L41.4971 24.4849C41.5701 21.7279 42.0139 18.5663 44.9538 13.7243L50.2722 5.007H39.823V38.332H76.3414ZM38.1794 1.66508H1.65833V3.37435H14.0943V4.93332L8.03627 15.1949C5.42698 19.6154 5.15695 22.4622 5.11879 24.979H3.34013C3.34143 24.881 3.34305 24.7825 3.34509 24.6835L3.34974 24.4849C3.4227 21.7279 3.86651 18.5663 6.80647 13.7243L12.1249 5.007H1.65833V38.332H38.1794V1.66508ZM59.3299 3.20932C64.0642 3.20932 67.1255 7.04045 67.1255 12.9345C67.1255 16.8983 66.2919 20.137 64.7158 22.3031C63.4047 24.2265 61.2285 25.3714 58.9072 25.3593C55.2237 25.3593 52.4148 23.2462 51.7368 19.9691H53.6123C54.1994 22.3562 56.1307 23.7236 58.8955 23.7236C60.7446 23.7236 62.356 22.7658 63.5564 20.9534C64.6806 19.25 65.3615 16.8717 65.4701 14.2489V13.8805L65.3762 14.1929L65.3615 14.2312C64.4604 16.3678 61.8717 17.8148 59.3299 17.8148C54.9566 17.8148 51.7808 14.7469 51.7808 10.5179C51.7419 8.55118 52.5091 6.65467 53.9029 5.27224C55.3765 3.90315 57.3227 3.16334 59.3299 3.20932ZM20.8597 3.2211C24.7516 3.2211 27.4724 5.5021 27.4724 8.76446C27.4724 10.7183 26.2602 12.4099 24.2292 13.2882L23.8476 13.4532L24.2438 13.577C26.6528 14.3292 28.2995 16.5608 28.3148 19.0938C28.3646 20.912 27.5358 22.6423 26.09 23.7383C24.7428 24.7639 22.8849 25.3268 20.845 25.3268C18.7904 25.3268 16.9472 24.7639 15.6147 23.7383C14.1708 22.641 13.3433 20.9113 13.3928 19.0938C13.4087 16.5619 15.0536 14.3311 17.4608 13.577L17.86 13.4532L17.4755 13.2882C15.4444 12.404 14.2469 10.7183 14.2469 8.76446C14.2469 5.5021 16.9678 3.2211 20.8597 3.2211ZM20.845 14.4021C17.4579 14.4021 15.2683 16.244 15.2683 19.0938C15.2683 21.9436 17.4051 23.6941 20.845 23.6941C24.2849 23.6941 26.4217 21.9259 26.4217 19.0938C26.4217 16.2617 24.235 14.4021 20.845 14.4021ZM59.3328 4.85376C56.0455 4.85376 53.6622 7.24968 53.6622 10.5504C53.6622 13.851 56.0573 16.1821 59.3328 16.1821C62.6084 16.1821 65.0034 13.8245 65.0034 10.5504C65.0034 7.27621 62.6289 4.85376 59.3328 4.85376ZM20.845 4.85376C17.9099 4.85376 16.1107 6.35379 16.1107 8.76446C16.1107 11.2341 17.9246 12.7695 20.845 12.7695C23.7654 12.7695 25.5793 11.2341 25.5793 8.76446C25.5793 6.35379 23.7654 4.85376 20.845 4.85376Z" fill="black"/>
</svg>
